#N canvas 460 157 663 323 10;
#N canvas 33 22 949 838 PwS 0;
#X obj 348 118 vsl 25 75 0 1 0 0 empty empty empty 0 -9 0 10 -262144
-1 -1 6300 1;
#X obj 35 1032 dac~;
#X obj 214 143 vsl 15 50 0.01 300 0 0 empty empty empty 0 -9 0 10 -262144
-1 -1 4100 1;
#X obj 257 143 vsl 15 50 0.01 500 0 0 empty empty empty 0 -9 0 10 -262144
-1 -1 4200 1;
#X obj 300 143 vsl 15 50 0.01 1 0 0 empty empty empty 0 -9 0 10 -262144
-1 -1 4000 1;
#N canvas 959 75 456 425 SMS 0;
#X obj -137 130 convert/ascii2pd CR;
#X obj -137 154 route list float symbol;
#X obj -45 211 send color;
#X floatatom -92 184 8 0 0 0 - - -;
#X obj -137 51 bng 15 250 50 0 empty empty empty 17 7 0 10 -262144
-1 -1;
#X msg -70 75 close;
#X obj -137 19 inlet;
#X obj -92 211 outlet;
#X msg -137 76 open 2;
#X obj -137 106 comport 2 115200;
#X connect 0 0 1 0;
#X connect 1 1 3 0;
#X connect 3 0 2 0;
#X connect 3 0 7 0;
#X connect 4 0 8 0;
#X connect 5 0 9 0;
#X connect 6 0 4 0;
#X connect 8 0 9 0;
#X connect 9 0 0 0;
#X restore 34 311 pd SMS;
#X obj 165 180 bng 15 250 50 0 empty empty empty 17 7 0 10 -262144
-1 -1;
#X obj 35 994 *~;
#X obj 77 959 limiter~;
#X obj 35 960 z~ 64;
#X text 380 227 trigger on keyboard : on / z \, off / x;
#N canvas 0 22 450 278 (subpatch) 0;
#X array sound 100 float 5;
#A 0 0 0 0 0 0 0 0 0 0 0 0 0 0 0 0 0 0 0 0 0 0 0 0 0 0 0 0 0 0 0 0
0 0 0 0 0 0 0 0 0 0 0 0 0 0 0 0 0 0 0 0 0 0 0 0 0 0 0 0 0 0 0 0 0 0
0 0 0 0 0 0 0 0 0 0 0 0 0 0 0 0 0 0 0 0 0 0 0 0 0 0 0 0 0 0 0 0 0 0
0;
#X coords 0 1 99 -1 200 140 1 0 0;
#X restore 398 56 graph;
#X obj 35 927 *~;
#X obj 92 116 nbx 4 30 -1e+37 1e+37 0 0 empty empty empty 0 -8 0 20
-262144 -1 -1 262.39 256;
#X obj 43 177 nbx 4 20 -1e+37 1e+37 0 0 empty empty empty 0 -8 0 15
-262144 -1 -1 262.44 256;
#X obj 164 157 bng 15 250 50 0 empty empty empty 17 7 0 10 -262144
-1 -1;
#N canvas 702 368 450 300 soundtable 0;
#X obj 90 169 metro 100;
#X obj 90 145 bng 15 250 50 0 empty empty empty 17 7 0 10 -262144 -1
-1;
#N canvas 255 58 491 596 on/off 0;
#X text -641 190 y-axis;
#X obj -866 117 route addCursor removeCursor updateCursor;
#X floatatom -651 207 5 0 0 0 - - -;
#X floatatom -616 207 5 0 0 0 - - -;
#X floatatom -568 207 5 0 0 0 - - -;
#X floatatom -532 208 5 0 0 0 - - -;
#X floatatom -478 208 5 0 0 0 - - -;
#X obj -704 143 unpack \$1 \$2 \$3 \$4 \$5 \$6 \$7;
#X text -690 191 x-axis;
#X text -576 187 x-speed;
#X text -530 190 y-speed;
#X text -482 190 accel;
#X obj -735 266 key;
#X floatatom -735 298 5 0 0 0 - - -;
#X obj -735 329 sel 122 120;
#X obj -606 308 bng 15 250 50 0 empty empty empty 17 7 0 10 -262144
-1 -1;
#X obj -651 267 bng 15 250 50 0 empty empty empty 17 7 0 10 -262144
-1 -1;
#X msg -651 329 0.5 0;
#X obj -651 232 +;
#X msg -606 329 0;
#X obj -651 443 change;
#X floatatom -651 466 5 0 0 0 - - -;
#X obj -651 356 > 0;
#X obj -606 282 del 500;
#X msg -704 358 0;
#X msg -735 357 1;
#X obj -651 382 * 1;
#X obj -651 411 tgl 15 0 empty empty empty 17 7 0 10 -262144 -1 -1
0 1;
#X obj -651 531 outlet;
#X obj -866 85 receive TuioClient;
#X connect 1 2 7 0;
#X connect 2 0 18 0;
#X connect 3 0 18 0;
#X connect 4 0 18 0;
#X connect 5 0 18 0;
#X connect 7 2 2 0;
#X connect 7 3 3 0;
#X connect 7 4 4 0;
#X connect 7 5 5 0;
#X connect 7 6 6 0;
#X connect 12 0 13 0;
#X connect 13 0 14 0;
#X connect 14 0 25 0;
#X connect 14 1 24 0;
#X connect 15 0 19 0;
#X connect 16 0 17 0;
#X connect 16 0 23 0;
#X connect 17 0 22 0;
#X connect 18 0 16 0;
#X connect 19 0 22 0;
#X connect 20 0 21 0;
#X connect 21 0 28 0;
#X connect 22 0 26 0;
#X connect 23 0 15 0;
#X connect 24 0 26 0;
#X connect 25 0 26 0;
#X connect 26 0 27 0;
#X connect 27 0 20 0;
#X connect 29 0 1 0;
#X restore 90 121 pd on/off;
#X obj 90 201 tabwrite~ sound;
#X obj 45 120 inlet~;
#X connect 0 0 3 0;
#X connect 1 0 0 0;
#X connect 2 0 1 0;
#X connect 4 0 3 0;
#X restore -57 961 pd soundtable;
#X text 287 124 sastain;
#X text 248 124 decay;
#X text 203 124 attack;
#X obj 300 202 s sa;
#X obj 257 202 s de;
#X obj 214 202 s at;
#X text 341 96 volume;
#X text 236 66 ----- sound -----;
#X text 63 67 ---- color ----;
#X text 135 156 set;
#X text 92 98 frequency;
#X text 112 184 balance;
#X text 123 175 white;
#X floatatom 256 734 5 0 0 0 - - -;
#X obj 256 598 vsl 15 128 0 5000 0 0 empty empty empty 0 -9 0 10 -262144
-1 -1 2252 1;
#X obj 211 761 pack f f;
#X obj 230 375 bng 15 250 50 0 empty empty empty 17 7 0 10 -262144
-1 -1;
#X obj 211 375 bng 15 250 50 0 empty empty empty 17 7 0 10 -262144
-1 -1;
#X obj 211 824 vline~;
#X obj 211 346 sel 0 1;
#X obj 256 548 timer;
#X obj 283 522 metro 10;
#X msg 283 500 0;
#X obj 256 572 / 1.5;
#X obj 211 847 *~ 0.8;
#X msg 211 789 0 \$2;
#X obj 230 436 pack f f f f;
#X msg 230 458 1 \$2 \, \$4 \$3 \$2;
#X obj 324 383 r sa;
#X obj 289 383 r de;
#X obj 253 383 r at;
#X floatatom 253 409 5 0 0 0 - - -;
#X floatatom 289 408 5 0 0 0 - - -;
#X floatatom 324 407 5 0 0 0 - - -;
#X text 40 159 Timbre;
#X obj 34 416 osc~;
#N canvas 664 38 491 596 TUIO-on/off 0;
#X text -641 190 y-axis;
#X obj -866 117 route addCursor removeCursor updateCursor;
#X floatatom -651 207 5 0 0 0 - - -;
#X floatatom -616 207 5 0 0 0 - - -;
#X floatatom -568 207 5 0 0 0 - - -;
#X floatatom -532 208 5 0 0 0 - - -;
#X floatatom -478 208 5 0 0 0 - - -;
#X obj -704 143 unpack \$1 \$2 \$3 \$4 \$5 \$6 \$7;
#X text -690 191 x-axis;
#X text -576 187 x-speed;
#X text -530 190 y-speed;
#X text -482 190 accel;
#X obj -735 266 key;
#X floatatom -735 298 5 0 0 0 - - -;
#X obj -735 329 sel 122 120;
#X obj -606 308 bng 15 250 50 0 empty empty empty 17 7 0 10 -262144
-1 -1;
#X obj -651 267 bng 15 250 50 0 empty empty empty 17 7 0 10 -262144
-1 -1;
#X msg -651 329 0.5 0;
#X obj -651 232 +;
#X msg -606 329 0;
#X obj -651 443 change;
#X floatatom -651 466 5 0 0 0 - - -;
#X obj -651 356 > 0;
#X obj -606 282 del 500;
#X msg -704 358 0;
#X msg -735 357 1;
#X obj -651 411 tgl 15 0 empty empty empty 17 7 0 10 -262144 -1 -1
0 1;
#X obj -651 531 outlet;
#X obj -651 382 * 1;
#X obj -866 77 TuioClient;
#X obj -812 99 send TuioClient;
#X connect 1 2 7 0;
#X connect 2 0 18 0;
#X connect 3 0 18 0;
#X connect 4 0 18 0;
#X connect 5 0 18 0;
#X connect 7 2 2 0;
#X connect 7 3 3 0;
#X connect 7 4 4 0;
#X connect 7 5 5 0;
#X connect 7 6 6 0;
#X connect 12 0 13 0;
#X connect 13 0 14 0;
#X connect 14 0 25 0;
#X connect 14 1 24 0;
#X connect 15 0 19 0;
#X connect 16 0 17 0;
#X connect 16 0 23 0;
#X connect 17 0 22 0;
#X connect 18 0 16 0;
#X connect 19 0 22 0;
#X connect 20 0 21 0;
#X connect 21 0 27 0;
#X connect 22 0 28 0;
#X connect 23 0 15 0;
#X connect 24 0 28 0;
#X connect 25 0 28 0;
#X connect 26 0 20 0;
#X connect 28 0 26 0;
#X connect 29 0 1 0;
#X connect 29 0 30 0;
#X restore 211 321 pd TUIO-on/off;
#N canvas 890 38 450 300 Timbre 0;
#X obj 225 145 bng 15 250 50 0 empty empty empty 17 7 0 10 -262144
-1 -1;
#X obj 225 121 inlet;
#X obj 155 205 outlet;
#X floatatom 155 122 5 0 0 0 - - -;
#X obj 155 177 snapshot~;
#X obj 304 116 loadbang;
#X obj 222 204 s white;
#X obj 155 88 inlet;
#N canvas 324 369 450 300 snapbug 0;
#N canvas 0 22 269 179 metro 0;
#X obj 88 39 loadbang;
#X msg 87 65 1;
#X obj 87 128 outlet;
#X obj 87 96 metro 100;
#X msg 178 70 \; pd dsp 1;
#X connect 0 0 1 0;
#X connect 0 0 4 0;
#X connect 1 0 3 0;
#X connect 3 0 2 0;
#X restore 70 117 pd metro;
#X obj 70 186 snapshot~;
#X obj 95 156 phasor~ 1;
#X floatatom 70 217 5 0 0 0 - - -;
#X connect 0 0 1 0;
#X connect 1 0 3 0;
#X connect 2 0 1 0;
#X restore 24 117 pd snapbug;
#X connect 0 0 4 0;
#X connect 1 0 0 0;
#X connect 3 0 4 0;
#X connect 4 0 2 0;
#X connect 4 0 6 0;
#X connect 5 0 0 0;
#X connect 7 0 3 0;
#X restore 34 339 pd Timbre;
#N canvas 401 45 594 732 whitenoise 0;
#N canvas 586 471 625 399 noise 0;
#X obj 118 -424 noise~;
#X obj 220 -427 pink~;
#X obj 220 -399 *~ 0.5;
#X obj 118 -399 *~ 0.125;
#X msg 281 -458 0.5;
#X msg 193 -457 0.125;
#X msg 253 -458 0;
#X msg 163 -456 0;
#X obj 118 -330 outlet~;
#X obj 193 -479 bng 15 250 50 0 empty empty empty 17 7 0 10 -262144
-1 -1;
#X obj 163 -478 bng 15 250 50 0 empty empty empty 17 7 0 10 -262144
-1 -1;
#X obj 281 -480 bng 15 250 50 0 empty empty empty 17 7 0 10 -262144
-1 -1;
#X obj 253 -480 bng 15 250 50 0 empty empty empty 17 7 0 10 -262144
-1 -1;
#X obj 163 -571 inlet;
#X obj 163 -541 sel 1158;
#X connect 0 0 3 0;
#X connect 1 0 2 0;
#X connect 2 0 8 0;
#X connect 3 0 8 0;
#X connect 4 0 2 1;
#X connect 5 0 3 1;
#X connect 6 0 2 1;
#X connect 7 0 3 1;
#X connect 9 0 5 0;
#X connect 10 0 7 0;
#X connect 11 0 4 0;
#X connect 12 0 6 0;
#X connect 13 0 14 0;
#X connect 14 0 10 0;
#X connect 14 0 12 0;
#X connect 14 1 9 0;
#X connect 14 1 11 0;
#X restore 38 -78 pd noise;
#X obj 107 13 outlet~;
#X obj 155 -174 loadbang;
#X obj 51 -207 == 1568;
#X obj 86 -149 bng 15 250 50 0 empty empty empty 17 7 0 10 -262144
-1 -1;
#X obj 52 -149 bng 15 250 50 0 empty empty empty 17 7 0 10 -262144
-1 -1;
#X obj 53 -102 line~;
#X obj 52 -179 sel 0 1;
#X msg 52 -127 0 10;
#X msg 86 -127 1 10;
#X obj 38 -49 *~;
#X obj 155 -149 bng 15 250 50 0 empty empty empty 17 7 0 10 -262144
-1 -1;
#X obj 121 -149 bng 15 250 50 0 empty empty empty 17 7 0 10 -262144
-1 -1;
#X obj 122 -102 line~;
#X msg 121 -127 0 10;
#X msg 155 -127 1 10;
#X obj 107 -47 *~;
#X obj 51 -238 r white;
#X obj 118 -222 inlet;
#X obj 118 -202 sel 0 1;
#X obj 107 -324 inlet~;
#X connect 0 0 10 0;
#X connect 2 0 11 0;
#X connect 2 0 5 0;
#X connect 3 0 7 0;
#X connect 4 0 9 0;
#X connect 5 0 8 0;
#X connect 6 0 10 1;
#X connect 7 0 5 0;
#X connect 7 0 11 0;
#X connect 7 1 4 0;
#X connect 7 1 12 0;
#X connect 8 0 6 0;
#X connect 9 0 6 0;
#X connect 10 0 1 0;
#X connect 11 0 15 0;
#X connect 12 0 14 0;
#X connect 13 0 16 1;
#X connect 14 0 13 0;
#X connect 15 0 13 0;
#X connect 16 0 1 0;
#X connect 17 0 3 0;
#X connect 18 0 19 0;
#X connect 19 0 11 0;
#X connect 19 1 12 0;
#X connect 20 0 16 0;
#X restore 34 442 pd whitenoise;
#X text 164 131 hz;
#X text 93 181 hz;
#N canvas 626 193 636 499 rec 0;
#X obj 2 320 writesf~ 2;
#X msg 2 227 stop;
#X obj 2 206 bng 15 250 50 0 empty empty empty 17 7 0 10 -262144 -1
-1;
#X floatatom 48 252 5 0 0 0 - - -;
#X obj 48 226 counter;
#X obj 48 205 bng 15 250 50 0 empty empty empty 17 7 0 10 -262144 -1
-1;
#X msg 48 290 open timbre\$1.wav \, start;
#X obj 104 137 inlet~;
#X obj 2 177 sel 0 1;
#X obj 2 136 inlet;
#X connect 1 0 0 0;
#X connect 2 0 1 0;
#X connect 3 0 6 0;
#X connect 4 0 3 0;
#X connect 5 0 4 0;
#X connect 6 0 0 0;
#X connect 7 0 0 1;
#X connect 7 0 0 0;
#X connect 8 0 2 0;
#X connect 8 1 5 0;
#X connect 9 0 8 0;
#X restore -120 957 pd rec;
#X obj -120 936 tgl 15 0 empty empty empty 17 7 0 10 -262144 -1 -1
1 1;
#X connect 2 0 22 0;
#X connect 3 0 21 0;
#X connect 4 0 20 0;
#X connect 5 0 14 0;
#X connect 6 0 5 0;
#X connect 7 0 1 0;
#X connect 7 0 1 1;
#X connect 8 0 7 1;
#X connect 9 0 7 0;
#X connect 12 0 16 0;
#X connect 12 0 9 0;
#X connect 12 0 8 0;
#X connect 12 0 58 1;
#X connect 14 0 54 0;
#X connect 15 0 54 1;
#X connect 30 0 32 1;
#X connect 31 0 30 0;
#X connect 32 0 42 0;
#X connect 33 0 38 0;
#X connect 33 0 37 0;
#X connect 33 0 43 0;
#X connect 34 0 39 0;
#X connect 34 0 32 0;
#X connect 35 0 41 0;
#X connect 36 0 34 0;
#X connect 36 1 33 0;
#X connect 37 0 40 0;
#X connect 38 0 37 1;
#X connect 39 0 38 0;
#X connect 40 0 31 0;
#X connect 41 0 12 1;
#X connect 42 0 35 0;
#X connect 43 0 44 0;
#X connect 44 0 35 0;
#X connect 45 0 50 0;
#X connect 46 0 49 0;
#X connect 47 0 48 0;
#X connect 48 0 43 1;
#X connect 49 0 43 2;
#X connect 50 0 43 3;
#X connect 52 0 55 0;
#X connect 53 0 36 0;
#X connect 54 0 13 0;
#X connect 54 0 52 0;
#X connect 55 0 12 0;
#X connect 59 0 58 0;
#X coords 0 0 1 1 650 300 1 0 0;
#X restore -673 -1773 pd PwS;
#X text -128 -1734 comment;
#X coords 0 323 1 322 85 60 0;
